<svg width="76" height="71" viewBox="0 0 76 71" fill="none" xmlns="http://www.w3.org/2000/svg">
<g clip-path="url(#clip0_16_1501)">
<path d="M21.454 32.9451L19.0208 40.4881H23.8873L21.454 32.9451Z" fill="#EFEFEF"/>
<path d="M68.4154 0.0964966H29.4837V12.2627H39.2166V17.1291H7.58461C3.44811 17.1291 0.284912 20.2923 0.284912 24.4288V51.1944C0.284912 55.3308 3.44811 58.494 7.58461 58.494H10.0178V70.9035L25.3472 58.494H41.6498V41.4614H68.4154C72.5519 41.4614 75.7151 38.2982 75.7151 34.1617V7.39619C75.7151 3.2597 72.5519 0.0964966 68.4154 0.0964966ZM26.5638 48.5178L25.3472 44.6246H17.8042L16.3442 48.5178H10.5045L18.5341 26.862H24.3739L32.4036 48.5178H26.5638ZM63.5489 29.2953V34.1617C60.3857 34.1617 56.9792 33.1884 54.0593 31.7285C51.1394 33.1884 47.7329 33.9184 44.3264 34.1617L44.0831 29.2953C45.7863 29.2953 47.4896 29.0519 49.1929 28.5653C47.0029 26.3754 45.543 23.6988 44.813 20.779H49.9228C50.6528 22.9689 52.1127 24.6721 53.816 26.1321C56.4925 23.9422 58.1958 20.779 58.4391 17.1291H43.8397V12.2627H51.1394V7.39619H56.0059V12.2627H64.0356L64.2789 14.6959C64.5222 19.8057 62.5756 24.9155 58.9258 28.5653C60.629 29.0519 62.089 29.2953 63.5489 29.2953Z" fill="#EFEFEF"/>
</g>
<defs>
<clipPath id="clip0_16_1501">
<rect width="75.4302" height="70.807" fill="white" transform="translate(0.284912 0.0964966)"/>
</clipPath>
</defs>
</svg>
