<svg width="54" height="37" viewBox="0 0 54 37" fill="none" xmlns="http://www.w3.org/2000/svg">
<path d="M50.5536 0.536499H3.44645C1.82715 0.536499 0.502258 1.86127 0.502258 3.48057V21.6168C0.502258 30.4494 4.91855 36.3378 15.2232 36.3378H38.7768C49.0815 36.3378 53.4977 30.4494 53.4977 21.6168V3.48057C53.4977 1.86127 52.1729 0.536499 50.5536 0.536499ZM18.7857 25.1793C18.6385 25.2971 18.4913 25.4443 18.3441 25.5326C18.1674 25.6504 17.9908 25.7387 17.8141 25.7976C17.6375 25.8859 17.4608 25.9448 17.2842 25.9742C17.0781 26.0037 16.9014 26.0331 16.6953 26.0331C16.3126 26.0331 15.9298 25.9448 15.5765 25.7976C15.1938 25.6504 14.8994 25.4443 14.6049 25.1793C14.075 24.6199 13.7511 23.8544 13.7511 23.0889C13.7511 22.3234 14.075 21.5579 14.6049 20.9985C14.8994 20.7336 15.1938 20.5275 15.5765 20.3802C16.1065 20.1447 16.6953 20.0858 17.2842 20.2036C17.4608 20.233 17.6375 20.2919 17.8141 20.3802C17.9908 20.4391 18.1674 20.5275 18.3441 20.6452C18.4913 20.763 18.6385 20.8808 18.7857 20.9985C19.3157 21.5579 19.6395 22.3234 19.6395 23.0889C19.6395 23.8544 19.3157 24.6199 18.7857 25.1793ZM18.7857 14.8746C18.2263 15.4046 17.4608 15.7284 16.6953 15.7284C15.9298 15.7284 15.1643 15.4046 14.6049 14.8746C14.075 14.3152 13.7511 13.5497 13.7511 12.7842C13.7511 12.0187 14.075 11.2532 14.6049 10.6938C15.4293 9.86947 16.7248 9.6045 17.8141 10.0756C18.1969 10.2228 18.5207 10.4289 18.7857 10.6938C19.3157 11.2532 19.6395 12.0187 19.6395 12.7842C19.6395 13.5497 19.3157 14.3152 18.7857 14.8746ZM29.0904 25.1793C28.531 25.7092 27.7655 26.0331 27 26.0331C26.2345 26.0331 25.469 25.7092 24.9096 25.1793C24.3797 24.6199 24.0558 23.8544 24.0558 23.0889C24.0558 22.3234 24.3797 21.5579 24.9096 20.9985C25.999 19.9092 28.001 19.9092 29.0904 20.9985C29.6203 21.5579 29.9442 22.3234 29.9442 23.0889C29.9442 23.8544 29.6203 24.6199 29.0904 25.1793ZM29.0904 14.8746C28.9432 14.9924 28.796 15.1101 28.6488 15.2279C28.4721 15.3457 28.2954 15.434 28.1188 15.4929C27.9421 15.5812 27.7655 15.6401 27.5888 15.6695C27.3827 15.699 27.2061 15.7284 27 15.7284C26.2345 15.7284 25.469 15.4046 24.9096 14.8746C24.3797 14.3152 24.0558 13.5497 24.0558 12.7842C24.0558 12.0187 24.3797 11.2532 24.9096 10.6938C25.1746 10.4289 25.4985 10.2228 25.8812 10.0756C26.9706 9.6045 28.266 9.86947 29.0904 10.6938C29.6203 11.2532 29.9442 12.0187 29.9442 12.7842C29.9442 13.5497 29.6203 14.3152 29.0904 14.8746ZM39.3951 25.1793C38.8357 25.7092 38.0702 26.0331 37.3047 26.0331C36.5392 26.0331 35.7737 25.7092 35.2143 25.1793C34.6843 24.6199 34.3605 23.8544 34.3605 23.0889C34.3605 22.3234 34.6843 21.5579 35.2143 20.9985C36.3037 19.9092 38.3057 19.9092 39.3951 20.9985C39.925 21.5579 40.2489 22.3234 40.2489 23.0889C40.2489 23.8544 39.925 24.6199 39.3951 25.1793ZM39.3951 14.8746C39.2478 14.9924 39.1006 15.1101 38.9534 15.2279C38.7768 15.3457 38.6001 15.434 38.4235 15.4929C38.2468 15.5812 38.0702 15.6401 37.8935 15.6695C37.6874 15.699 37.4813 15.7284 37.3047 15.7284C36.5392 15.7284 35.7737 15.4046 35.2143 14.8746C34.6843 14.3152 34.3605 13.5497 34.3605 12.7842C34.3605 12.0187 34.6843 11.2532 35.2143 10.6938C35.5087 10.4289 35.8031 10.2228 36.1859 10.0756C36.7158 9.84003 37.3047 9.78115 37.8935 9.89892C38.0702 9.92836 38.2468 9.98724 38.4235 10.0756C38.6001 10.1345 38.7768 10.2228 38.9534 10.3405L39.3951 10.6938C39.925 11.2532 40.2489 12.0187 40.2489 12.7842C40.2489 13.5497 39.925 14.3152 39.3951 14.8746Z" fill="#EFEFEF"/>
</svg>
