<svg width="54" height="66" viewBox="0 0 54 66" fill="none" xmlns="http://www.w3.org/2000/svg">
<path d="M51.5276 5.69258C50.8735 5.03851 49.8924 4.71148 48.9113 5.03851C41.7166 6.67369 34.5218 5.03851 28.6352 0.787061C27.6541 0.132991 26.0189 0.132991 25.0378 0.787061C18.8241 5.03851 11.6294 6.67369 4.43461 5.03851C2.79944 4.71148 0.837228 6.01962 0.510193 7.65479V8.30886V32.8365C0.510193 42.3205 5.08868 51.1504 12.9375 56.71L25.0378 65.2129C26.0189 65.867 27.6541 65.867 28.9622 65.2129L41.0625 56.71C48.9113 51.1504 53.4898 42.3205 53.4898 32.8365V8.30886C52.8358 7.32776 52.5087 6.34665 51.5276 5.69258ZM33.2137 36.4339H29.9433V39.7042C29.9433 41.6664 28.6352 42.9745 26.673 42.9745C24.7108 42.9745 23.4026 41.6664 23.4026 39.7042V36.4339H20.1323C18.1701 36.4339 16.8619 35.1257 16.8619 33.1635C16.8619 31.2013 18.1701 29.8932 20.1323 29.8932H23.4026V26.6228C23.4026 24.6606 24.7108 23.3525 26.673 23.3525C28.6352 23.3525 29.9433 24.6606 29.9433 26.6228V29.8932H33.2137C35.1759 29.8932 36.484 31.2013 36.484 33.1635C36.484 35.1257 35.1759 36.4339 33.2137 36.4339Z" fill="#EFEFEF"/>
</svg>
