<svg width="110" height="78" viewBox="0 0 110 78" fill="none" xmlns="http://www.w3.org/2000/svg">
<path d="M16.5 33.5C22.5672 33.5 27.5 28.5672 27.5 22.5C27.5 16.4328 22.5672 11.5 16.5 11.5C10.4328 11.5 5.5 16.4328 5.5 22.5C5.5 28.5672 10.4328 33.5 16.5 33.5ZM93.5 33.5C99.5672 33.5 104.5 28.5672 104.5 22.5C104.5 16.4328 99.5672 11.5 93.5 11.5C87.4328 11.5 82.5 16.4328 82.5 22.5C82.5 28.5672 87.4328 33.5 93.5 33.5ZM99 39H88C84.975 39 82.2422 40.2203 80.2484 42.1969C87.175 45.9953 92.0906 52.8531 93.1562 61H104.5C107.542 61 110 58.5422 110 55.5V50C110 43.9328 105.067 39 99 39ZM55 39C65.6391 39 74.25 30.3891 74.25 19.75C74.25 9.11094 65.6391 0.5 55 0.5C44.3609 0.5 35.75 9.11094 35.75 19.75C35.75 30.3891 44.3609 39 55 39ZM68.2 44.5H66.7734C63.1984 46.2188 59.2281 47.25 55 47.25C50.7719 47.25 46.8187 46.2188 43.2266 44.5H41.8C30.8687 44.5 22 53.3688 22 64.3V69.25C22 73.8047 25.6953 77.5 30.25 77.5H79.75C84.3047 77.5 88 73.8047 88 69.25V64.3C88 53.3688 79.1312 44.5 68.2 44.5ZM29.7516 42.1969C27.7578 40.2203 25.025 39 22 39H11C4.93281 39 0 43.9328 0 50V55.5C0 58.5422 2.45781 61 5.5 61H16.8266C17.9094 52.8531 22.825 45.9953 29.7516 42.1969Z" fill="#EFEFEF"/>
</svg>
