<svg width="68" height="62" viewBox="0 0 68 62" fill="none" xmlns="http://www.w3.org/2000/svg">
<path d="M32.0123 17.8979L38.378 19.5753C38.5942 19.6258 38.7876 19.7464 38.9282 19.9182C39.0689 20.09 39.1488 20.3034 39.1556 20.5254C39.1556 21.0649 38.6759 21.5107 38.0859 21.5107H33.9101C33.4601 21.5094 33.0146 21.4218 32.5976 21.2526C31.9829 20.9946 31.2745 21.0532 30.8029 21.4872L28.5743 23.5399C28.4712 23.6301 28.3823 23.7353 28.3104 23.8519C28.2184 24.0028 28.1571 24.1705 28.1302 24.3452C28.1033 24.5199 28.1112 24.6982 28.1535 24.8698C28.1958 25.0414 28.2717 25.203 28.3767 25.3451C28.4817 25.4873 28.6139 25.6073 28.7655 25.6982C29.9997 26.4389 31.3816 26.8994 32.8134 27.0471V29.1232C32.8134 30.1554 33.7318 31 34.8508 31H36.8883C38.0085 31 38.9269 30.1554 38.9269 29.1232V27.0588C42.7895 26.6365 45.7114 23.4226 45.2023 19.6691C44.8328 16.9713 42.5678 14.8247 39.741 14.074L33.3753 12.3967C33.1591 12.3461 32.9656 12.2256 32.825 12.0538C32.6843 11.882 32.6044 11.6685 32.5976 11.4466C32.5976 10.907 33.0773 10.4613 33.6673 10.4613H37.8431C38.2947 10.462 38.7419 10.5496 39.1603 10.7194C39.7738 10.9774 40.4834 10.9188 40.955 10.4848L43.1836 8.43206C43.2833 8.34376 43.3691 8.24095 43.4381 8.12709C43.5309 7.97622 43.5929 7.80845 43.6205 7.63348C43.6481 7.45852 43.6407 7.27982 43.5988 7.10771C43.557 6.93561 43.4814 6.77351 43.3765 6.63078C43.2716 6.48805 43.1395 6.36752 42.9877 6.27615C41.7531 5.53546 40.3708 5.07497 38.9386 4.92723V2.84873C38.9386 1.81652 38.0214 0.971985 36.9012 0.971985H34.8637C33.7436 0.971985 32.8263 1.81652 32.8263 2.84873V4.91316C28.9684 5.33543 26.0407 8.54936 26.5497 12.3029C26.9181 15.0007 29.1901 17.1472 32.0123 17.8979ZM66.5222 39.4571C65.1381 38.202 62.9798 38.2841 61.5253 39.4571L50.6871 48.1253C49.3567 49.1927 47.7009 49.7722 45.9952 49.7675H32.1225C31.6248 49.7675 31.1474 49.5697 30.7955 49.2178C30.4435 48.8658 30.2458 48.3885 30.2458 47.8907C30.2458 47.393 30.4435 46.9156 30.7955 46.5637C31.1474 46.2117 31.6248 46.014 32.1225 46.014H41.3057C43.1707 46.014 44.9079 44.7354 45.2058 42.8939C45.2425 42.6824 45.2606 42.4681 45.2598 42.2534C45.2579 41.2592 44.8616 40.3063 44.1579 39.6039C43.4542 38.9015 42.5005 38.507 41.5063 38.507H22.7388C19.5736 38.5078 16.505 39.5965 14.0471 41.5907L8.59278 46.014H2.09453C1.59679 46.014 1.11943 46.2117 0.767468 46.5637C0.415509 46.9156 0.217781 47.393 0.217781 47.8907L0.217781 59.1512C0.217781 59.649 0.415509 60.1263 0.767468 60.4783C1.11943 60.8302 1.59679 61.028 2.09453 61.028H43.9425C45.6476 61.0293 47.3023 60.4501 48.6344 59.3858L66.3732 45.1929C66.7999 44.8516 67.147 44.4213 67.3901 43.9319C67.6333 43.4426 67.7666 42.9061 67.7809 42.3599C67.7952 41.8136 67.6901 41.2709 67.4729 40.7695C67.2557 40.2681 66.9316 39.8202 66.5233 39.4571H66.5222Z" fill="#EFEFEF"/>
</svg>
